<svg width="244" height="110" viewBox="0 0 244 110" fill="none" xmlns="http://www.w3.org/2000/svg">
<rect x="46" y="43" width="10.6667" height="6" rx="2" fill="white" fill-opacity="0.33"/>
<rect x="58.6667" y="41" width="10.6667" height="8" rx="2" fill="white" fill-opacity="0.68"/>
<rect x="71.3333" y="38" width="10.6667" height="11" rx="2" fill="white"/>
<rect x="59.5" y="52" width="9" height="20" rx="2" fill="white"/>
<path d="M101.936 67V45.016H106.832V67H101.936ZM98.416 55.608V51.448H110.352V55.608H98.416ZM112.509 67V51.448H117.405V67H112.509ZM117.405 58.456L115.357 56.856C115.763 55.0427 116.445 53.6347 117.405 52.632C118.365 51.6293 119.699 51.128 121.405 51.128C122.152 51.128 122.803 51.2453 123.357 51.48C123.933 51.6933 124.435 52.0347 124.861 52.504L121.949 56.184C121.736 55.9493 121.469 55.768 121.149 55.64C120.829 55.512 120.467 55.448 120.061 55.448C119.251 55.448 118.6 55.704 118.109 56.216C117.64 56.7067 117.405 57.4533 117.405 58.456ZM132.224 67.32C130.795 67.32 129.515 66.968 128.384 66.264C127.275 65.56 126.389 64.6 125.728 63.384C125.088 62.168 124.768 60.7813 124.768 59.224C124.768 57.6667 125.088 56.28 125.728 55.064C126.389 53.848 127.275 52.888 128.384 52.184C129.515 51.48 130.795 51.128 132.224 51.128C133.269 51.128 134.208 51.3307 135.04 51.736C135.893 52.1413 136.587 52.7067 137.12 53.432C137.653 54.136 137.952 54.9467 138.016 55.864V62.584C137.952 63.5013 137.653 64.3227 137.12 65.048C136.608 65.752 135.925 66.3067 135.072 66.712C134.219 67.1173 133.269 67.32 132.224 67.32ZM133.216 62.904C134.261 62.904 135.104 62.5627 135.744 61.88C136.384 61.176 136.704 60.2907 136.704 59.224C136.704 58.4987 136.555 57.8587 136.256 57.304C135.979 56.7493 135.573 56.3227 135.04 56.024C134.528 55.704 133.931 55.544 133.248 55.544C132.565 55.544 131.957 55.704 131.424 56.024C130.912 56.3227 130.496 56.7493 130.176 57.304C129.877 57.8587 129.728 58.4987 129.728 59.224C129.728 59.928 129.877 60.5573 130.176 61.112C130.475 61.6667 130.891 62.104 131.424 62.424C131.957 62.744 132.555 62.904 133.216 62.904ZM136.512 67V62.808L137.248 59.032L136.512 55.256V51.448H141.312V67H136.512ZM151.255 67.32C149.826 67.32 148.546 66.968 147.415 66.264C146.306 65.56 145.421 64.6 144.759 63.384C144.119 62.168 143.799 60.7813 143.799 59.224C143.799 57.6667 144.119 56.28 144.759 55.064C145.421 53.848 146.306 52.888 147.415 52.184C148.546 51.48 149.826 51.128 151.255 51.128C152.301 51.128 153.239 51.3307 154.071 51.736C154.925 52.1413 155.618 52.7067 156.151 53.432C156.685 54.136 156.983 54.9467 157.047 55.864V62.584C156.983 63.5013 156.685 64.3227 156.151 65.048C155.639 65.752 154.957 66.3067 154.103 66.712C153.25 67.1173 152.301 67.32 151.255 67.32ZM152.247 62.904C153.293 62.904 154.135 62.5627 154.775 61.88C155.415 61.176 155.735 60.2907 155.735 59.224C155.735 58.4987 155.586 57.8587 155.287 57.304C155.01 56.7493 154.605 56.3227 154.071 56.024C153.559 55.704 152.962 55.544 152.279 55.544C151.597 55.544 150.989 55.704 150.455 56.024C149.943 56.3227 149.527 56.7493 149.207 57.304C148.909 57.8587 148.759 58.4987 148.759 59.224C148.759 59.928 148.909 60.5573 149.207 61.112C149.506 61.6667 149.922 62.104 150.455 62.424C150.989 62.744 151.586 62.904 152.247 62.904ZM155.543 73.56V63L156.279 59.224L155.543 55.448V51.448H160.343V73.56H155.543ZM171.47 67.352C169.785 67.352 168.281 67.0107 166.959 66.328C165.657 65.624 164.633 64.6533 163.887 63.416C163.14 62.1787 162.767 60.7813 162.767 59.224C162.767 57.6667 163.129 56.28 163.855 55.064C164.601 53.8267 165.604 52.856 166.863 52.152C168.121 51.448 169.54 51.096 171.119 51.096C172.655 51.096 174.009 51.4267 175.183 52.088C176.356 52.7493 177.273 53.6667 177.935 54.84C178.617 56.0133 178.958 57.3573 178.958 58.872C178.958 59.1493 178.937 59.448 178.895 59.768C178.873 60.0667 178.82 60.4187 178.735 60.824L165.327 60.856V57.496L176.655 57.464L174.543 58.872C174.521 57.976 174.383 57.24 174.127 56.664C173.871 56.0667 173.487 55.6187 172.975 55.32C172.484 55 171.876 54.84 171.151 54.84C170.383 54.84 169.711 55.0213 169.135 55.384C168.58 55.7253 168.143 56.216 167.823 56.856C167.524 57.496 167.375 58.2747 167.375 59.192C167.375 60.1093 167.535 60.8987 167.855 61.56C168.196 62.2 168.665 62.7013 169.263 63.064C169.881 63.4053 170.607 63.576 171.439 63.576C172.207 63.576 172.9 63.448 173.519 63.192C174.137 62.9147 174.681 62.5093 175.151 61.976L177.839 64.664C177.071 65.56 176.143 66.232 175.055 66.68C173.967 67.128 172.772 67.352 171.47 67.352ZM191.594 67V58.136C191.594 57.3253 191.338 56.6747 190.826 56.184C190.335 55.672 189.706 55.416 188.938 55.416C188.404 55.416 187.935 55.5333 187.53 55.768C187.124 55.9813 186.804 56.3013 186.57 56.728C186.335 57.1333 186.218 57.6027 186.218 58.136L184.33 57.208C184.33 55.992 184.596 54.9253 185.13 54.008C185.663 53.0907 186.399 52.3867 187.338 51.896C188.298 51.384 189.375 51.128 190.57 51.128C191.722 51.128 192.735 51.4053 193.61 51.96C194.506 52.4933 195.21 53.208 195.722 54.104C196.234 55 196.49 55.9813 196.49 57.048V67H191.594ZM181.322 67V51.448H186.218V67H181.322Z" fill="white"/>
</svg>
